<svg height="512pt" viewBox="0 0 512 512" width="512pt" xmlns="http://www.w3.org/2000/svg"><path d="m473.601562 512h-435.203124c-21.167969 0-38.398438-17.230469-38.398438-38.398438v-435.203124c0-21.167969 17.230469-38.398438 38.398438-38.398438h435.203124c21.167969 0 38.398438 17.230469 38.398438 38.398438v435.203124c0 21.167969-17.230469 38.398438-38.398438 38.398438zm-435.203124-494.933594c-11.757813 0-21.332032 9.574219-21.332032 21.332032v435.203124c0 11.757813 9.574219 21.332032 21.332032 21.332032h435.203124c11.765626 0 21.332032-9.574219 21.332032-21.332032v-435.203124c0-11.757813-9.574219-21.332032-21.332032-21.332032zm0 0"/><path d="m76.800781 85.332031h-34.132812c-4.710938 0-8.535157-3.820312-8.535157-8.53125v-34.132812c0-4.710938 3.824219-8.535157 8.535157-8.535157h34.132812c4.710938 0 8.53125 3.824219 8.53125 8.535157v34.132812c0 4.710938-3.820312 8.53125-8.53125 8.53125zm-25.601562-17.066406h17.066406v-17.066406h-17.066406zm0 0"/><path d="m145.066406 85.332031h-34.132812c-4.710938 0-8.535156-3.820312-8.535156-8.53125v-34.132812c0-4.710938 3.824218-8.535157 8.535156-8.535157h34.132812c4.710938 0 8.535156 3.824219 8.535156 8.535157v34.132812c0 4.710938-3.824218 8.53125-8.535156 8.53125zm-25.601562-17.066406h17.070312v-17.066406h-17.070312zm0 0"/><path d="m213.332031 85.332031h-34.132812c-4.710938 0-8.53125-3.820312-8.53125-8.53125v-34.132812c0-4.710938 3.820312-8.535157 8.53125-8.535157h34.132812c4.710938 0 8.535157 3.824219 8.535157 8.535157v34.132812c0 4.710938-3.824219 8.53125-8.535157 8.53125zm-25.597656-17.066406h17.066406v-17.066406h-17.066406zm0 0"/><path d="m503.464844 119.464844h-494.929688c-4.710937 0-8.535156-3.820313-8.535156-8.53125v-72.535156c0-21.167969 17.230469-38.398438 38.398438-38.398438h435.203124c21.167969 0 38.398438 17.230469 38.398438 38.398438v72.535156c0 4.710937-3.824219 8.53125-8.535156 8.53125zm-486.398438-17.066406h477.867188v-64c0-11.757813-9.574219-21.332032-21.332032-21.332032h-435.203124c-11.757813 0-21.332032 9.574219-21.332032 21.332032zm0 0"/><path d="m469.332031 477.867188h-426.664062c-4.710938 0-8.535157-3.824219-8.535157-8.535157v-324.265625c0-4.710937 3.824219-8.53125 8.535157-8.53125h426.664062c4.710938 0 8.535157 3.820313 8.535157 8.53125v324.265625c0 4.710938-3.824219 8.535157-8.535157 8.535157zm-418.132812-17.066407h409.601562v-307.199219h-409.601562zm0 0"/><path d="m409.601562 418.132812h-307.203124c-4.707032 0-8.53125-3.824218-8.53125-8.53125v-204.800781c0-4.710937 3.824218-8.535156 8.53125-8.535156h307.203124c4.707032 0 8.53125 3.824219 8.53125 8.535156v204.800781c0 4.707032-3.824218 8.53125-8.53125 8.53125zm-298.667968-17.066406h290.132812v-187.734375h-290.132812zm0 0"/><path d="m196.273438 384h-34.140626c-14.121093 0-25.597656-11.476562-25.597656-25.589844v-102.417968c0-14.113282 11.476563-25.59375 25.589844-25.59375h34.140625c14.125 0 25.601563 11.480468 25.601563 25.59375v25.609374c0 4.707032-3.824219 8.53125-8.535157 8.53125-4.710937 0-8.53125-3.824218-8.53125-8.53125v-25.609374c0-4.703126-3.824219-8.527344-8.527343-8.527344h-34.140626c-4.710937 0-8.53125 3.824218-8.53125 8.527344v102.417968c0 4.699219 3.820313 8.523438 8.523438 8.523438h34.140625c4.710937 0 8.535156-3.824219 8.535156-8.523438v-25.609375c0-4.710937 3.820313-8.535156 8.53125-8.535156 4.710938 0 8.535157 3.824219 8.535157 8.535156v25.609375c0 14.113282-11.476563 25.589844-25.59375 25.589844zm0 0"/><path d="m290.132812 384c-4.710937 0-8.53125-3.824219-8.53125-8.535156v-136.53125c0-4.710938 3.820313-8.535156 8.53125-8.535156 4.710938 0 8.535157 3.824218 8.535157 8.535156v136.53125c0 4.710937-3.824219 8.535156-8.535157 8.535156zm0 0"/><path d="m341.332031 384c-4.710937 0-8.53125-3.824219-8.53125-8.535156v-136.53125c0-4.710938 3.820313-8.535156 8.53125-8.535156 4.710938 0 8.535157 3.824218 8.535157 8.535156v136.53125c0 4.710937-3.824219 8.535156-8.535157 8.535156zm0 0"/><path d="m366.933594 341.332031h-102.398438c-4.710937 0-8.535156-3.820312-8.535156-8.53125 0-4.710937 3.824219-8.535156 8.535156-8.535156h102.398438c4.710937 0 8.53125 3.824219 8.53125 8.535156 0 4.710938-3.820313 8.53125-8.53125 8.53125zm0 0"/><path d="m366.933594 290.132812h-102.398438c-4.710937 0-8.535156-3.824218-8.535156-8.53125 0-4.710937 3.824219-8.535156 8.535156-8.535156h102.398438c4.710937 0 8.53125 3.824219 8.53125 8.535156 0 4.707032-3.820313 8.53125-8.53125 8.53125zm0 0"/></svg>